# xmcd CD database file
#
# Track frame offsets:
#	150
#	18799
#	32007
#	46103
#	65929
#	77857
#	89798
#	103136
#	121818
#
# Disc length: 1786 seconds
#
# Revision: 0
# Processed by: cddbd v1.5.1PL0 Copyright (c) Steve Scherf et al.
# Submitted via: NeoAudio 9.9.9
#
DISCID=7306f809
DTITLE=SCDF WORKSHOP SEPT/OKT - SCDF WORKSHOP SEPT/OKT
DYEAR=2005
DGENRE=Country
TTITLE0=DAGEROUS WATERS
TTITLE1=I LOVE MY LIFE
TTITLE2=SHAME ON ME
TTITLE3=DON'T LET ME FALL
TTITLE4=YOU ARE THE ONE
TTITLE5=THREE GOODD REASONS
TTITLE6=I WANNA LOVE AGAIN
TTITLE7=OLD MEXICO
TTITLE8=ROCKIN DADDY
EXTD=YEAR: 2005
EXTT0=
EXTT1=
EXTT2=
EXTT3=
EXTT4=
EXTT5=
EXTT6=
EXTT7=
EXTT8=
PLAYORDER=
